# xmcd
#
# Track frame offsets: 
#        150
#        11745
#        24820
#        41500
#        60472
#        76900
#        90267
#        110840
#        121287
#        134392
#
# Disc length: 2012 seconds
#
# Revision: 15
# Processed by: cddbd v1.5.2PL0 Copyright (c) Steve Scherf et al.
# Submitted via: ExactAudioCopy v0.99pb5
#
DISCID=7107da0a
DTITLE=Garth Brooks - Garth Brooks
DYEAR=1989
DGENRE=Country
TTITLE0=Not Counting You
TTITLE1=I've Got A Good Thing Going
TTITLE2=If Tomorrow Never Comes
TTITLE3=Everytime That It Rains
TTITLE4=Alabama Clay
TTITLE5=Much Too Young (To Feel This Damn Old)
TTITLE6=Cowboy Bill
TTITLE7=Nobody Gets Off In This Town
TTITLE8=I Know One
TTITLE9=The Dance
EXTD=
EXTT0=
EXTT1=
EXTT2=
EXTT3=
EXTT4=
EXTT5=
EXTT6=
EXTT7=
EXTT8=
EXTT9=
PLAYORDER=
